# xmcd
#
# Track frame offsets: 
#        150
#        22602
#        40826
#        56668
#        78624
#        94562
#        112894
#        144372
#        171350
#
# Disc length: 2642 seconds
#
# Revision: 0
# Processed by: cddbd v1.5.2PL0 Copyright (c) Steve Scherf et al.
# Submitted via: ExactAudioCopy v1.3
#
DISCID=650a5009
DTITLE=Stephen Houpt - Strictly Tablue
DYEAR=2019
DGENRE=Harmonica Blues
TTITLE0=The Thrill Is Gone
TTITLE1=Help Me
TTITLE2=I Loved Another Woman
TTITLE3=Hoochie Coochie Man
TTITLE4=Crossroads
TTITLE5=That Ain't Right
TTITLE6=Stormy Monday
TTITLE7=Rock Me Baby
TTITLE8=Fried Hockey Boogie
EXTD=
EXTT0=
EXTT1=
EXTT2=
EXTT3=
EXTT4=
EXTT5=
EXTT6=
EXTT7=
EXTT8=
PLAYORDER=
